<?xml version="1.0" encoding="UTF-8"?>
<svg xmlns="http://www.w3.org/2000/svg" id="Layer_1" data-name="Layer 1" viewBox="0 0 24 24" width="512" height="512"><path d="m19,0H5C2.243,0,0,2.243,0,5v14c0,2.757,2.243,5,5,5h14c2.757,0,5-2.243,5-5V5c0-2.757-2.243-5-5-5Zm-.053,13.905c0,.605-.49,1.095-1.095,1.095l-1.56-.205c-.605,0-1.095-.49-1.095-1.095l-.148-1.578c-1.939-.868-3.968-.91-6.099,0l-.148,1.578c0,.605-.49,1.095-1.095,1.095l-1.56.205c-.605,0-1.095-.49-1.095-1.095l-.053-1.038c0-.747.314-1.416.804-1.906,2.711-2.711,9.874-2.517,12.391,0,.49.49.805,1.159.804,1.906l-.053,1.038Z"/></svg>
