<?xml version="1.0" encoding="UTF-8"?>
<svg xmlns="http://www.w3.org/2000/svg" id="Layer_1" data-name="Layer 1" viewBox="0 0 24 24" width="512" height="512"><path d="m13.644.418c-.228-.19-.529-.268-.821-.215-3.001.555-5.754,2.302-7.554,4.794h-.271C2.241,4.998-.002,7.241-.002,9.998v4.005C-.002,16.76,2.241,19.003,4.998,19.003h.271c1.802,2.495,4.555,4.243,7.554,4.794.06.011.121.017.181.017.232,0,.459-.081.64-.231.228-.19.36-.472.36-.769V1.187c0-.297-.131-.579-.36-.769Zm10.089,13.875c.391.391.391,1.023,0,1.414-.195.195-.451.293-.707.293s-.512-.098-.707-.293l-2.293-2.293-2.293,2.293c-.195.195-.451.293-.707.293s-.512-.098-.707-.293c-.391-.391-.391-1.023,0-1.414l2.293-2.293-2.293-2.293c-.391-.391-.391-1.023,0-1.414s1.023-.391,1.414,0l2.293,2.293,2.293-2.293c.391-.391,1.023-.391,1.414,0s.391,1.023,0,1.414l-2.293,2.293,2.293,2.293Z"/></svg>
